<svg xmlns="http://www.w3.org/2000/svg" width="14.35" height="18.043" viewBox="0 0 14.35 18.043">
  <g id="Group_9336" data-name="Group 9336" transform="translate(-1319.962 -970)">
    <path id="Path_10945" data-name="Path 10945" d="M177.359,91.547V76.236a.119.119,0,0,0,0-.027v0a.711.711,0,0,0-.711-.669c-.08,0-.159,0-.239,0h-4.1v1.27h.56a.525.525,0,0,1,0,1.049h-5.359a.525.525,0,1,1,0-1.049h.332V75.535h-3.383c-.256,0-.516-.015-.772,0a.712.712,0,0,0-.671.709V91.421c0,.09,0,.183,0,.273a.715.715,0,0,0,.709.7h12.645a2,2,0,0,0,.462-.021.708.708,0,0,0,.531-.692c0-.046,0-.09,0-.134Zm-8.9-10.824a2.457,2.457,0,0,1,2.5-.592,2.033,2.033,0,0,1,1.049.716,2.275,2.275,0,0,1,.411,1.36v0a3.313,3.313,0,0,1-.027.407,2.574,2.574,0,0,1-1.769,2.22,2.147,2.147,0,0,1-2.352-1.263,2.64,2.64,0,0,1,.191-2.85Zm6.039,8.946a.107.107,0,0,1-.1.1h-.015c-.338.015-.682,0-1.02,0h-7.389a.087.087,0,0,1-.071-.029l0,0a0,0,0,0,1,0,0,.1.1,0,0,1-.029-.071V88.063a1.652,1.652,0,0,1,.323-1.016,1.73,1.73,0,0,1,.7-.529q.765-.34,1.53-.678c.183-.08.363-.164.546-.243.2-.088.3.09.4.229l.816,1.068.923-1.19c.055-.069.1-.139.206-.136a.466.466,0,0,1,.172.059l.661.294q.7.312,1.4.625a1.608,1.608,0,0,1,.806.791,1.979,1.979,0,0,1,.147.846Z" transform="translate(1156.953 895.646)" fill="#70bdf1"/>
    <path id="Path_10946" data-name="Path 10946" d="M318.414,45.142a.031.031,0,0,1,0-.015v2.224h-2.371V45.414c0-.1,0-.191,0-.287a.106.106,0,0,0-.006.015.035.035,0,0,0,.006-.021v-.046c0,.006,0,0,0-.006a.011.011,0,0,1,0-.008.276.276,0,0,0,.017-.036.034.034,0,0,0,.006-.017s0,.008,0,.013a.083.083,0,0,0,.017-.021s0,0,0,0a.129.129,0,0,1,.017-.023c-.006,0,0,0,.023-.021a.156.156,0,0,1,.029-.021s0,0,0,0c-.057.019.084-.048.055-.025l.067-.008-.019.006h.027c.418-.006.837,0,1.257,0,.2,0,.4,0,.6,0a.158.158,0,0,1,.031,0,.243.243,0,0,1,.036,0h.038a.058.058,0,0,0-.019,0l.021.008.008.006a.183.183,0,0,0,.031.01c-.038-.044.092.057.042.034.008.01.025.029.036.04v0c.01.01.015.017,0,0a.2.2,0,0,0,.008.027,0,0,0,0,0,0,0,.071.071,0,0,1,.015.042v0c0,.008,0,.025.006.038a.227.227,0,0,0,0-.038.288.288,0,0,1,0-.031s0,.021.006.052a.056.056,0,0,1,.013.034Z" transform="translate(1009.8 925.102)" fill="#70bdf1"/>
  </g>
</svg>
