<svg xmlns="http://www.w3.org/2000/svg" width="19.125" height="15.027" viewBox="0 0 19.125 15.027">
  <path id="Path_1195" data-name="Path 1195" d="M10.1,42.761v1.582a.683.683,0,0,1-.683.683H7.366a.683.683,0,0,1-.683-.683V41.9A1.166,1.166,0,0,1,6,40.928V38.2a2.727,2.727,0,0,1,.987-2.1,1.366,1.366,0,0,1,.379-2.679h.911l.455-1.366A2.987,2.987,0,0,1,11.464,30h8.2a2.987,2.987,0,0,1,2.732,2.049l.455,1.366h.911a1.366,1.366,0,0,1,.379,2.679,2.727,2.727,0,0,1,.987,2.1v2.732a1.166,1.166,0,0,1-.683.97v2.445a.683.683,0,0,1-.683.683H21.71a.683.683,0,0,1-.683-.683V42.761a52.215,52.215,0,0,1-5.464.216,52.273,52.273,0,0,1-5.464-.216Zm12.713-7.3-1.066-3.2a2.181,2.181,0,0,0-1.239-1.382,2.5,2.5,0,0,0-.846-.2h-8.2a2.509,2.509,0,0,0-.846.2A2.181,2.181,0,0,0,9.38,32.264l-1.066,3.2h14.5Zm-4.175,4.1H12.489a.342.342,0,1,0,0,.683h6.147a.342.342,0,1,0,0-.683Zm3.757-2.049a1.366,1.366,0,1,0,1.366,1.366,1.366,1.366,0,0,0-1.366-1.366Zm-13.661,0A1.366,1.366,0,1,0,10.1,38.879a1.366,1.366,0,0,0-1.366-1.366Zm3.074.683a.342.342,0,0,0,0,.683h7.514a.342.342,0,1,0,0-.683Z" transform="translate(-6 -29.999)" fill="#b6b7b7"/>
</svg>
